<svg width="452" height="81" viewBox="0 0 452 81" fill="none" xmlns="http://www.w3.org/2000/svg">
<path d="M13.9436 2H0V77H13.9436V2Z" fill="#FAFAF9"/>
<path d="M278.756 62.9982C276.22 62.9982 273.769 61.9486 272.184 59.9577C271.634 59.2746 271.183 58.5249 271.017 57.7918C270.65 56.1924 270.483 54.2182 270.925 51.994C271.567 48.7119 272.976 45.7713 272.976 39.4487C272.976 33.1261 271.517 30.1439 270.816 26.8451C270.299 24.4044 270.541 22.2635 271.033 20.5725C271.167 20.0727 271.459 19.5645 271.826 19.0731C273.393 16.9489 275.962 15.8076 278.597 15.8076H313.973V2.01282H258.357L258.357 77H315.182V62.9982H278.772H278.756Z" fill="#FAFAF9"/>
<path d="M298.345 32.5597H284.935C281.149 32.5597 278.072 35.6419 278.072 39.4404C278.072 43.239 281.141 46.3212 284.935 46.3212H298.345C302.131 46.3212 305.208 43.239 305.208 39.4404C305.208 35.6419 302.139 32.5597 298.345 32.5597Z" fill="#FAFAF9"/>
<path d="M210.088 35.1668V46.9123H231.579C231.429 49.8446 230.837 52.4519 229.786 54.7094C222.956 69.7371 199.122 67.0048 192.901 52.6768C191.091 48.9116 190.182 44.5632 190.182 39.6484C190.182 35.0251 191.091 30.8434 192.901 27.1031C194.71 23.3629 197.346 20.4223 200.782 18.2814C204.217 16.1489 208.254 15.0743 212.857 15.0743C217.46 15.0743 221.33 15.9157 224.632 17.59C227.935 19.2644 231.062 21.5885 234.064 24.5791L243.33 13.8998C239.493 9.97624 234.89 6.86908 229.486 4.56161C224.082 2.24582 218.311 1.07959 212.132 1.07959C204.676 1.07959 198.029 2.67899 192.175 5.88611C186.321 9.09324 181.767 13.6499 178.548 19.556C175.321 25.4621 173.712 32.1596 173.712 39.6401C173.712 47.1206 175.204 53.9097 178.182 59.7825C186.913 77.6674 210.989 83.282 226.576 71.803C228.11 70.5534 229.786 69.8037 231.229 70.3952C232.246 70.82 232.83 71.9029 232.872 73.0025C232.947 74.9518 233.022 75.4422 233.072 77H244.614V35.1501H210.088V35.1668Z" fill="#FAFAF9"/>
<path d="M148.743 2L149.135 28.1446C149.135 33.2677 149.485 38.4324 152.254 42.5808C158.2 51.5108 150.661 57.4252 145.382 51.5191L107.771 2L90.7419 1.99997V22.0302L90.7752 53.9016C90.7752 56.0091 89.0406 58.8913 85.3296 58.6581C80.084 58.3415 81.1765 47.6289 72.5701 38.0325L45.2667 2.07107L28.8129 2.00003V77H43.1568V54.1181C43.1568 48.287 43.2652 40.6149 40.3547 36.5248C35.5178 29.719 39.0955 24.6542 43.3653 25.1874C45.2083 25.4123 46.1924 26.7451 46.1924 26.7451L70.4519 58.7747L84.3037 77H104.994V51.3692C104.994 46.2461 104.886 41.4229 102.709 36.9496C102.592 36.7247 102.509 36.4914 102.409 36.2499C102.017 35.3335 101.783 34.4339 101.491 33.6092C100.307 30.1188 101.325 27.6448 103.184 26.5868C104.936 25.5955 107.321 25.6122 109.114 27.6364C110.331 29.0276 145.968 77 145.968 77H163.104V2H148.743Z" fill="#FAFAF9"/>
<path d="M344.821 16.346C347.315 14.8466 350.817 14.0386 355.345 14.0386C359.515 14.0386 363.251 14.8133 366.462 16.3127C369.731 17.8205 372.633 20.0197 375.102 22.8602L377.187 25.2593L385.234 14.0136L383.808 12.5308C381.315 9.89013 378.671 7.68263 375.886 5.94162C373.1 4.18395 369.94 2.80114 366.545 1.86816C363.143 0.893522 359.365 0.418701 355.354 0.418701C349.966 0.418701 345.055 1.21007 340.751 2.8178C336.356 4.45052 332.779 6.90792 330.227 10.19C327.625 13.5138 326.307 17.5456 326.307 22.1105C326.307 26.2923 327.3 29.9826 329.335 33.0064C331.311 35.9636 334.247 38.4877 337.991 40.4703C341.627 42.4196 346.322 44.1023 351.968 45.5184L353.653 45.9182L353.944 44.852L353.703 45.9182C358.281 47.1428 361.792 48.2673 364.152 49.2586L364.577 48.2507L364.152 49.2753C366.312 50.2083 367.788 51.2746 368.655 52.4491C369.081 53.0322 369.397 53.7653 369.614 54.5816C369.798 55.298 369.931 56.1061 369.931 57.0224C369.931 59.1133 369.414 60.7793 368.455 62.1371C367.955 62.8369 367.379 63.4949 366.612 64.0281C364.194 65.7358 360.633 66.7021 355.887 66.7021C351.443 66.7021 347.206 65.6775 343.22 63.6949L342.736 64.6695L343.22 63.6782C339.209 61.6456 336.056 59.1466 333.838 56.231L331.803 53.532L323.472 65.186L324.748 66.6854C328.292 70.7755 332.779 74.0743 338.074 76.5234C343.395 79.0141 349.408 80.2303 355.887 80.2303C361.558 80.2303 366.654 79.364 370.974 77.6063C375.385 75.8236 378.946 73.1163 381.44 69.5927C383.967 66.019 385.226 61.704 385.226 56.8058C385.226 52.4075 384.175 48.5506 382.09 45.3934C380.055 42.2946 376.961 39.7039 373.042 37.6713V37.6297C369.222 35.6638 364.235 33.9061 358.164 32.415L356.338 32.0151C352.201 30.9322 349.041 29.9243 346.898 28.9746C344.938 28.1333 343.578 27.117 342.82 26.0757C342.077 25.0511 341.677 23.7432 341.677 21.9689C341.677 20.6861 341.952 19.6198 342.469 18.7201C342.986 17.8205 343.762 17.0291 344.888 16.3544H344.846L344.821 16.346Z" fill="#FAFAF9"/>
<path d="M436.972 2.00833C435.563 2.00833 434.162 2.10829 432.769 2.33321C430.15 2.75805 428.916 3.29118 427.524 3.90761C426.823 4.21583 424.705 5.55699 421.903 5.55699C419.101 5.55699 417.316 4.28247 416.707 4.02424C415.415 3.47444 414.222 2.9663 412.204 2.53313C410.453 2.15827 408.668 2 406.875 2H391.956V15.5116H410.369C412.879 15.5116 414.914 17.5691 414.914 20.0932V77H428.95V20.0765C428.95 17.5608 430.984 15.5116 433.495 15.5116H452V2.00833H436.955H436.972Z" fill="#FAFAF9"/>
</svg>
