<svg width="836" height="253" viewBox="0 0 836 253" fill="none" xmlns="http://www.w3.org/2000/svg">
<path fill-rule="evenodd" clip-rule="evenodd" d="M7.76143 6.22375C2.58713 10.373 0 16.1817 0 23.6503C0 31.0358 2.58713 36.8031 7.76143 40.9523C12.9358 45.1015 19.0268 47.1761 26.0345 47.1761C32.9608 47.1761 38.9906 45.0807 44.1242 40.89C49.2578 36.6994 51.8246 30.9529 51.8246 23.6503C51.8246 16.1817 49.2578 10.373 44.1242 6.22375C38.9906 2.07457 32.9608 0 26.0345 0C19.0268 0 12.9358 2.07457 7.76143 6.22375ZM49.0134 58.1299H2.81124V181.983H49.0134V58.1299ZM59.4598 181.983V56.0138H100.162L102.239 69.8305C107.21 63.9387 113.2 59.6236 120.207 56.8851C126.808 54.3127 133.408 53.0264 140.008 53.0264H141.23C146.69 53.1094 151.721 53.7525 156.326 54.9558C160.929 56.159 165.309 58.1921 169.465 61.0551C173.621 63.918 177.165 67.5692 180.099 72.0088C183.032 76.4484 185.354 82.0706 187.066 88.8749C188.776 95.6799 189.633 103.439 189.633 112.152V181.983H143.553V112.401C143.553 105.181 141.882 99.8913 138.541 96.5306C135.2 93.1693 131.085 91.489 126.196 91.489C120.248 91.489 115.216 93.5844 111.101 97.7754C106.986 101.966 104.928 107.961 104.928 115.762V181.983H59.4598ZM198.368 56.0138V181.983H243.837V115.762C243.837 107.961 245.894 101.966 250.009 97.7754C254.124 93.5844 259.155 91.489 265.104 91.489C269.993 91.489 274.108 93.1693 277.449 96.5306C280.79 99.8913 282.46 105.181 282.46 112.401V181.983H328.54V112.152C328.54 103.439 327.685 95.6799 325.973 88.8749C324.262 82.0706 321.94 76.4484 319.006 72.0088C316.073 67.5692 312.528 63.918 308.373 61.0551C304.217 58.1921 299.837 56.159 295.233 54.9558C290.63 53.7525 285.597 53.1094 280.138 53.0264H278.916C272.315 53.0264 265.715 54.3127 259.115 56.8851C252.107 59.6236 246.118 63.9387 241.148 69.8305L239.069 56.0138H198.368ZM336.689 116.7C336.689 103.837 339.764 92.4686 345.917 82.5935C352.069 72.7183 360.34 65.1876 370.729 60.0011C381.119 54.8146 392.71 52.2215 405.503 52.2215C414.141 52.2215 422.656 53.7981 431.049 56.9515L441.104 43.9752C442.457 42.2117 443.547 40.7697 444.371 39.6494L465.669 44.963L477.617 63.9221L461.605 83.2156C469.51 92.178 473.462 102.675 473.462 114.708V117.198C473.299 125.164 471.262 132.84 467.35 140.226C463.439 147.611 457.939 153.876 450.85 159.021C456.146 162.092 460.567 165.535 464.111 169.353C467.656 173.17 470.162 176.925 471.628 180.617C473.095 184.31 474.052 187.36 474.501 189.766C474.949 192.173 475.173 194.579 475.173 196.986C475.173 204.869 473.869 212.006 471.261 218.396C468.654 224.786 465.13 230.096 460.689 234.329C456.248 238.561 450.992 242.108 444.921 244.971C438.851 247.834 432.516 249.888 425.915 251.133C419.315 252.377 412.348 253 405.014 253C382.931 253 366.024 247.481 354.29 236.444C343.697 226.486 338.4 213.168 338.4 196.488C338.4 194.745 338.441 192.962 338.522 191.136H381.791V192.007C381.791 196.091 382.282 199.567 383.267 202.435L383.502 203.085C384.643 206.405 386.375 208.894 388.697 210.554C391.019 212.213 393.484 213.375 396.092 214.039C398.699 214.703 401.673 215.035 405.014 215.035C411.451 215.035 416.87 213.479 421.27 210.367C425.671 207.256 427.871 202.795 427.871 196.986C427.871 191.924 426.099 187.858 422.554 184.787C419.146 181.835 413.76 180.302 406.396 180.189L405.503 180.182C384.643 180.182 367.959 174.456 355.451 163.004C342.942 151.552 336.689 136.118 336.689 116.7ZM388.33 134.371C383.808 129.849 381.546 123.894 381.546 116.509C381.546 108.377 383.787 102.007 388.269 97.4018C392.751 92.7964 398.495 90.4933 405.503 90.4933C412.185 90.4933 417.746 93.0243 422.187 98.0864C426.628 103.148 428.848 109.289 428.848 116.509C428.848 124.475 426.608 130.574 422.126 134.807C417.644 139.039 412.103 141.155 405.503 141.155C398.577 141.155 392.853 138.893 388.33 134.371ZM480.144 119.247C480.144 110.368 481.467 102.215 484.116 94.7877C486.764 87.3606 490.309 81.1164 494.75 76.0543C499.191 70.9923 504.365 66.6979 510.273 63.1712C516.18 59.6443 522.394 57.0718 528.913 55.4537C535.432 53.8355 542.113 53.0264 548.958 53.0264C559.958 53.0264 569.961 54.8312 578.965 58.4411C587.969 62.0509 595.445 67.258 601.394 74.063C607.342 80.8673 611.457 89.1655 613.738 98.9575C614.701 103.107 615.193 107.462 615.213 112.023L615.205 113.396C615.205 119.289 614.513 125.595 613.127 132.317H526.712C528.26 137.462 531.805 141.424 537.346 144.205C542.887 146.985 548.551 148.374 554.336 148.374C566.559 148.374 577.152 144.972 586.115 138.167L608.605 163.934C601.352 170.822 592.858 176.029 583.12 179.555C573.383 183.082 563.095 184.845 552.258 184.845C542.235 184.845 532.966 183.559 524.451 180.987C515.936 178.414 508.337 174.535 501.655 169.348C494.974 164.162 489.718 157.295 485.889 148.748C482.058 140.201 480.144 130.367 480.144 119.247ZM571.815 102.194H526.957C527.527 98.294 529.422 95.0157 532.641 92.3608C535.859 89.7052 539.587 88.0868 543.824 87.5063C545.78 87.2572 547.695 87.1327 549.569 87.1327C551.851 87.1327 554.091 87.2987 556.292 87.6301C560.447 88.2944 564.012 89.9332 566.986 92.5473C569.961 95.1613 571.57 98.377 571.815 102.194ZM615.409 168.788L630.443 134.557C636.228 138.375 642.136 141.383 648.166 143.582C654.196 145.781 658.902 147.109 662.283 147.565C665.665 148.022 669.637 148.374 674.201 148.623C682.593 148.623 686.79 146.59 686.79 142.524C686.79 138.624 682.43 136.3 673.711 135.553C668.578 135.388 663.628 134.848 658.861 133.935C654.094 133.022 649.347 131.529 644.622 129.454C639.895 127.379 635.801 124.828 632.338 121.799C628.875 118.77 626.063 114.89 623.904 110.16C621.745 105.43 620.664 100.119 620.664 94.2276C620.664 86.9251 622.254 80.5352 625.432 75.0587C628.61 69.5816 632.928 65.2872 638.388 62.1753C643.847 59.0634 649.877 56.7607 656.477 55.267C663.078 53.7732 670.167 53.0264 677.745 53.0264C687.605 53.0264 696.975 54.3956 705.857 57.1341C714.74 59.8726 722.236 63.6068 728.347 68.3368L708.791 96.3435C705.646 94.3128 701.239 92.5764 695.569 91.1335L694.491 90.867C688.624 89.3731 683.286 88.6265 678.479 88.6265H677.745C670.411 88.6265 666.744 90.7009 666.744 94.8503C666.744 96.3435 667.458 97.7128 668.884 98.9575C670.215 100.119 672.379 100.776 675.378 100.925L676.034 100.95C681.738 101.115 687.034 101.572 691.924 102.319C696.812 103.065 701.844 104.393 707.018 106.302C712.193 108.211 716.613 110.659 720.28 113.646C723.948 116.633 726.942 120.596 729.263 125.533C731.584 130.471 732.747 136.134 732.747 142.524C732.747 148.582 731.707 154.038 729.634 158.893C727.554 163.747 724.721 167.792 721.136 171.028C717.551 174.265 713.272 176.983 708.302 179.182C703.331 181.381 698.096 182.958 692.596 183.912C687.095 184.867 681.29 185.344 675.178 185.344C664.178 185.344 653.177 183.87 642.177 180.925C631.177 177.978 622.254 173.933 615.409 168.788ZM734.915 56.7607V92.7337H754.715V136.176C754.635 142.98 755.326 149.079 756.795 154.474C758.424 160.448 760.621 165.324 763.392 169.1C766.164 172.875 769.546 175.987 773.539 178.435C777.533 180.883 781.73 182.605 786.13 183.601C790.531 184.596 795.295 185.095 800.431 185.095C814.448 185.095 826.304 182.273 836 176.63L825.977 141.901C821.576 144.806 817.095 146.259 812.527 146.259C804.548 146.259 800.431 142.192 800.184 134.06V92.7337H828.297V56.7607H800.431V20.4139L754.715 25.5174V56.7607H734.915Z" fill="#0A0A12"/>
</svg>
